<?xml version="1.0" standalone="no"?>
<!DOCTYPE svg PUBLIC "-//W3C//DTD SVG 20010904//EN"
 "http://www.w3.org/TR/2001/REC-SVG-20010904/DTD/svg10.dtd">
<svg version="1.0" xmlns="http://www.w3.org/2000/svg"
 width="224.000000pt" height="224.000000pt" viewBox="0 0 224.000000 224.000000"
 preserveAspectRatio="xMidYMid meet">

<g transform="translate(0.000000,224.000000) scale(0.100000,-0.100000)"
fill="#000000" stroke="none">
<path d="M791 2022 c-58 -22 -78 -51 -98 -145 -33 -154 5 -276 144 -455 100
-129 162 -192 189 -192 12 0 32 -9 45 -20 21 -17 21 -19 4 -13 -18 6 -18 5 -6
-10 12 -15 21 -9 98 64 60 56 92 79 106 77 12 -2 54 -42 95 -91 70 -83 75 -87
96 -74 26 18 28 43 3 41 -10 -1 -16 1 -13 4 3 3 1 11 -5 19 -6 7 -9 13 -5 13
7 0 -26 39 -100 120 -146 157 -182 204 -170 222 12 19 27 19 34 0 2 -8 -3 -10
-15 -6 -17 5 -17 5 -1 -9 10 -8 14 -18 10 -22 -4 -5 -1 -5 6 -1 7 4 10 12 7
17 -4 5 -2 9 2 9 5 0 38 -33 75 -73 51 -57 65 -79 62 -98 -4 -19 12 -41 76
-108 44 -47 82 -82 85 -79 3 3 -28 42 -70 88 -80 87 -94 124 -56 151 78 58
151 123 151 136 0 8 -18 37 -40 63 -43 51 -44 63 -18 133 9 22 13 25 25 15 10
-8 14 -27 11 -65 -3 -59 3 -68 18 -25 10 26 11 24 59 -62 27 -50 51 -84 53
-78 2 7 10 12 18 12 8 0 14 4 14 9 0 5 11 13 25 18 24 8 24 9 10 31 -9 12 -23
22 -31 22 -8 0 -12 4 -9 10 3 5 -6 27 -20 48 -23 34 -24 42 -14 73 15 43 56
99 73 99 10 0 8 -13 -6 -56 -11 -31 -18 -71 -16 -88 3 -28 5 -25 21 28 21 66
37 95 80 138 16 16 28 30 26 32 -7 6 -161 -25 -326 -66 l-163 -40 -66 60 c-76
69 -143 108 -218 128 -71 19 -200 17 -255 -4z m849 -161 c0 -6 -4 -13 -10 -16
-5 -3 -10 -18 -10 -31 0 -28 -17 -28 -34 0 -9 14 -6 21 13 37 25 21 41 24 41
10z m-189 -80 c-15 -46 -17 -48 -33 -34 -23 21 -23 32 4 60 36 39 47 29 29
-26z m-291 -177 c0 -27 -14 -25 -30 7 -9 16 -7 19 10 19 15 0 20 -7 20 -26z
m155 -274 c10 -11 16 -20 13 -20 -3 0 -13 9 -23 20 -10 11 -16 20 -13 20 3 0
13 -9 23 -20z m117 -122 c7 2 10 0 6 -3 -4 -4 -3 -16 3 -26 19 -36 1 -19 -56
54 -48 61 -50 64 -11 22 25 -27 51 -48 58 -47z"/>
<path d="M1027 1209 c7 -7 15 -10 18 -7 3 3 -2 9 -12 12 -14 6 -15 5 -6 -5z"/>
<path d="M880 1190 c0 -11 -5 -20 -11 -20 -6 0 -8 -9 -4 -22 4 -15 3 -18 -3
-10 -6 9 -16 10 -40 1 -18 -6 -32 -15 -32 -20 0 -5 -9 -9 -21 -9 -14 0 -19 -5
-16 -14 4 -10 1 -13 -7 -10 -22 9 -54 -48 -60 -107 -10 -100 -15 -179 -11
-179 15 0 55 21 52 27 -3 5 6 9 19 9 13 1 42 11 64 23 22 12 47 21 55 21 8 0
15 4 15 9 0 5 11 12 25 15 17 4 23 11 18 23 -5 13 -2 15 12 10 11 -5 22 -1 30
10 10 13 16 15 26 6 11 -9 20 -8 39 2 14 8 21 15 15 15 -5 0 -5 4 2 8 6 4 13
25 14 47 3 32 0 42 -16 50 -38 19 -64 52 -51 65 8 8 7 10 -7 4 -12 -4 -30 5
-57 30 -46 42 -50 43 -50 16z m175 -130 c3 -5 1 -10 -4 -10 -6 0 -11 5 -11 10
0 6 2 10 4 10 3 0 8 -4 11 -10z"/>
<path d="M1077 1033 c-11 -10 -8 -53 3 -53 6 0 9 14 8 30 -3 33 -2 33 -11 23z"/>
<path d="M1227 1027 c-3 -8 3 -14 16 -15 12 0 17 2 12 6 -6 4 -13 11 -16 15
-4 4 -9 2 -12 -6z"/>
<path d="M1246 954 c-9 -24 -2 -26 12 -4 7 11 8 20 3 20 -5 0 -12 -7 -15 -16z"/>
<path d="M876 815 c-9 -26 -7 -32 5 -12 6 10 9 21 6 23 -2 3 -7 -2 -11 -11z"/>
<path d="M845 743 c-8 -20 -13 -38 -10 -41 3 -3 5 -3 5 0 0 3 7 22 15 42 8 20
13 36 10 36 -2 0 -12 -16 -20 -37z"/>
<path d="M787 605 c-9 -25 -14 -45 -11 -45 5 0 26 48 30 73 7 32 -4 17 -19
-28z"/>
<path d="M752 525 c-7 -14 -12 -34 -11 -43 0 -9 7 1 15 22 16 45 13 59 -4 21z"/>
<path d="M1240 536 c0 -2 7 -6 15 -10 8 -3 15 -1 15 4 0 6 -7 10 -15 10 -8 0
-15 -2 -15 -4z"/>
<path d="M2015 200 c3 -5 13 -10 21 -10 8 0 14 -4 14 -10 0 -5 11 -12 24 -16
14 -3 27 -12 30 -20 3 -8 10 -14 16 -14 6 0 8 5 5 10 -8 13 5 13 25 0 12 -8
12 -10 1 -10 -24 0 -5 -11 28 -16 18 -3 31 -1 31 5 0 6 -7 11 -16 11 -8 0 -12
4 -9 10 4 6 -1 7 -11 3 -13 -5 -15 -3 -9 7 5 9 4 11 -3 6 -6 -4 -39 7 -73 24
-64 31 -85 37 -74 20z"/>
</g>
</svg>
